<svg xmlns="http://www.w3.org/2000/svg" fill="none" viewBox="0 0 24 24" stroke-width="2" stroke="currentColor">
  <path stroke-linecap="round" stroke-linejoin="round" d="M11.049 2.927c.3-.921 1.603-.921 1.902 0l.518 1.598a1 1 0 00.95.69h1.682c.969 0 1.371 1.24.588 1.81l-1.36 1.056a1 1 0 00-.364 1.118l.518 1.598c.3.922-.755 1.688-1.54 1.118l-1.36-1.056a1 1 0 00-1.175 0l-1.36 1.056c-.785.57-1.838-.196-1.539-1.118l.518-1.598a1 1 0 00-.364-1.118L4.311 7.025c-.783-.57-.38-1.81.588-1.81h1.682a1 1 0 00.95-.69l.518-1.598z"></path>
</svg>
